<svg width="221" height="110" viewBox="0 0 221 110" fill="none" xmlns="http://www.w3.org/2000/svg">
<g clip-path="url(#clip0_2009_21)">
<path d="M106.129 109.5H101.18C99.523 109.5 98.1799 108.157 98.1799 106.5V7.92822C98.1799 5.16501 101.599 3.87118 103.428 5.94221L133.388 39.8613C134.61 41.2455 136.781 41.2069 137.954 39.7802L165.332 6.46975C167.12 4.29427 170.65 5.55864 170.65 8.37465V56C170.65 57.6569 169.307 59 167.65 59H163.223C161.566 59 160.223 57.6569 160.223 56V38.9833C160.223 36.2133 156.789 34.9231 154.965 37.0076L137.885 56.5238C136.722 57.8528 134.669 57.8946 133.452 56.6139L114.304 36.4499C112.438 34.4846 109.129 35.8055 109.129 38.5157V106.5C109.129 108.157 107.785 109.5 106.129 109.5Z" fill="white"/>
<path d="M170.65 106.5V67C170.65 65.3431 169.307 64 167.65 64H163.223C161.566 64 160.223 65.3431 160.223 67V97.5C160.223 99.1569 158.879 100.5 157.223 100.5H131.419C129.762 100.5 128.419 99.1569 128.419 97.5V67C128.419 65.3431 127.076 64 125.419 64H121.513C119.856 64 118.513 65.3431 118.513 67V106.5C118.513 108.157 119.856 109.5 121.513 109.5H167.65C169.307 109.5 170.65 108.157 170.65 106.5Z" fill="white"/>
<path d="M220.18 11L220.18 9C220.18 7.34314 218.837 6 217.18 6H184.077C182.42 6 181.077 7.34315 181.077 9V34.5C181.077 36.1569 182.42 37.5 184.077 37.5H188.5H196H209.5C211.157 37.5 212.5 38.8431 212.5 40.5V47.5C212.5 49.1569 211.157 50.5 209.5 50.5H183.556C181.899 50.5 180.556 51.8431 180.556 53.5V56C180.556 57.6569 181.899 59 183.556 59H217.18C218.837 59 220.18 57.6569 220.18 56V53.5V49V33.5V32.5C220.18 30.8431 218.837 29.5 217.18 29.5H204.68H192.941C191.284 29.5 189.941 28.1569 189.941 26.5L189.941 17C189.941 15.3431 191.284 14 192.941 14H217.18C218.837 14 220.18 12.6569 220.18 11Z" fill="white"/>
<path d="M183.556 64H217.18C218.837 64 220.18 65.3431 220.18 67V70.5C220.18 72.1569 218.837 73.5 217.18 73.5H192.941C191.284 73.5 189.941 74.8431 189.941 76.5V79.5C189.941 81.1569 191.284 82.5 192.941 82.5H217.18C218.837 82.5 220.18 83.8431 220.18 85.5V88.5C220.18 90.1569 218.837 91.5 217.18 91.5H192.941C191.284 91.5 189.941 92.8431 189.941 94.5V97.5C189.941 99.1569 191.284 100.5 192.941 100.5H217.18C218.837 100.5 220.18 101.843 220.18 103.5V106.5C220.18 108.157 218.837 109.5 217.18 109.5H183.556C181.899 109.5 180.556 108.157 180.556 106.5V67C180.556 65.3431 181.899 64 183.556 64Z" fill="white"/>
<path d="M106.129 109.5H101.18C99.523 109.5 98.1799 108.157 98.1799 106.5V7.92822C98.1799 5.16501 101.599 3.87118 103.428 5.94221L133.388 39.8613C134.61 41.2455 136.781 41.2069 137.954 39.7802L165.332 6.46975C167.12 4.29427 170.65 5.55864 170.65 8.37465V56C170.65 57.6569 169.307 59 167.65 59H163.223C161.566 59 160.223 57.6569 160.223 56V38.9833C160.223 36.2133 156.789 34.9231 154.965 37.0076L137.885 56.5238C136.722 57.8528 134.669 57.8946 133.452 56.6139L114.304 36.4499C112.438 34.4846 109.129 35.8055 109.129 38.5157V106.5C109.129 108.157 107.785 109.5 106.129 109.5Z" stroke="white"/>
<path d="M170.65 106.5V67C170.65 65.3431 169.307 64 167.65 64H163.223C161.566 64 160.223 65.3431 160.223 67V97.5C160.223 99.1569 158.879 100.5 157.223 100.5H131.419C129.762 100.5 128.419 99.1569 128.419 97.5V67C128.419 65.3431 127.076 64 125.419 64H121.513C119.856 64 118.513 65.3431 118.513 67V106.5C118.513 108.157 119.856 109.5 121.513 109.5H167.65C169.307 109.5 170.65 108.157 170.65 106.5Z" stroke="white"/>
<path d="M220.18 11L220.18 9C220.18 7.34314 218.837 6 217.18 6H184.077C182.42 6 181.077 7.34315 181.077 9V34.5C181.077 36.1569 182.42 37.5 184.077 37.5H188.5H196H209.5C211.157 37.5 212.5 38.8431 212.5 40.5V47.5C212.5 49.1569 211.157 50.5 209.5 50.5H183.556C181.899 50.5 180.556 51.8431 180.556 53.5V56C180.556 57.6569 181.899 59 183.556 59H217.18C218.837 59 220.18 57.6569 220.18 56V53.5V49V33.5V32.5C220.18 30.8431 218.837 29.5 217.18 29.5H204.68H192.941C191.284 29.5 189.941 28.1569 189.941 26.5L189.941 17C189.941 15.3431 191.284 14 192.941 14H217.18C218.837 14 220.18 12.6569 220.18 11Z" stroke="white"/>
<path d="M183.556 64H217.18C218.837 64 220.18 65.3431 220.18 67V70.5C220.18 72.1569 218.837 73.5 217.18 73.5H192.941C191.284 73.5 189.941 74.8431 189.941 76.5V79.5C189.941 81.1569 191.284 82.5 192.941 82.5H217.18C218.837 82.5 220.18 83.8431 220.18 85.5V88.5C220.18 90.1569 218.837 91.5 217.18 91.5H192.941C191.284 91.5 189.941 92.8431 189.941 94.5V97.5C189.941 99.1569 191.284 100.5 192.941 100.5H217.18C218.837 100.5 220.18 101.843 220.18 103.5V106.5C220.18 108.157 218.837 109.5 217.18 109.5H183.556C181.899 109.5 180.556 108.157 180.556 106.5V67C180.556 65.3431 181.899 64 183.556 64Z" stroke="white"/>
<path d="M83.8225 109.418C85.4794 109.423 86.8269 108.084 86.8323 106.427L87.1137 20.496L87.1517 8.87444C87.161 6.03448 83.5854 4.77258 81.8101 6.98931L3.88807 104.288C2.31802 106.249 3.70822 109.155 6.21988 109.164L13.5934 109.188C14.5165 109.191 15.3896 108.769 15.9605 108.043L45.8032 70.1326L53.3573 60.5362L70.9961 38.1286V38.1286C72.5619 35.9368 76.0184 37.0508 76.0095 39.7445L75.9412 60.6101L75.9097 70.2311L75.7913 106.391C75.7859 108.048 77.1246 109.396 78.7815 109.401L83.8225 109.418Z" fill="white"/>
<path d="M45.8032 70.1326L75.9097 70.2311L75.9412 60.6101L53.3573 60.5362L45.8032 70.1326Z" fill="white"/>
<path d="M75.9097 70.2311L75.7913 106.391C75.7859 108.048 77.1246 109.396 78.7815 109.401L83.8225 109.418C85.4794 109.423 86.8269 108.084 86.8323 106.427L87.1137 20.496L87.1517 8.87444C87.161 6.03448 83.5854 4.77258 81.8101 6.98931L3.88807 104.288C2.31802 106.249 3.70822 109.155 6.21988 109.164L13.5934 109.188C14.5165 109.191 15.3896 108.769 15.9605 108.043L45.8032 70.1326M75.9097 70.2311L45.8032 70.1326M75.9097 70.2311L75.9412 60.6101M45.8032 70.1326L53.3573 60.5362M53.3573 60.5362L70.9961 38.1286V38.1286C72.5619 35.9368 76.0184 37.0508 76.0095 39.7445L75.9412 60.6101M53.3573 60.5362L75.9412 60.6101" stroke="white"/>
</g>
<defs>
<clipPath id="clip0_2009_21">
<rect width="220.18" height="109.5" fill="white"/>
</clipPath>
</defs>
</svg>
